<svg xmlns="http://www.w3.org/2000/svg" shape-rendering="geometricPrecision" text-rendering="geometricPrecision" image-rendering="optimizeQuality" fill-rule="evenodd" clip-rule="evenodd" viewBox="0 0 512 414.889">
    <path fill="#fff" d="M118.611 279.221V135.667h38.979v56.085h51.582v-56.085h38.979v143.554h-38.979v-56.084H157.59v56.084h-38.979zm203.262 0h-55.232V135.667h54.672c14.77 0 27.535 2.857 38.322 8.583 10.755 5.725 19.083 13.949 24.933 24.671 5.855 10.723 8.821 23.586 8.821 38.523 0 14.965-2.928 27.795-8.783 38.518-5.823 10.728-14.112 18.952-24.808 24.672-10.69 5.725-23.351 8.587-37.925 8.587zm-16.253-33.09h14.867c7.111 0 13.162-1.12 18.192-3.423 5.003-2.303 8.849-6.252 11.483-11.841 2.629-5.628 3.949-13.422 3.949-23.423 0-10-1.32-17.794-4.014-23.389-2.7-5.628-6.611-9.572-11.777-11.874-5.165-2.271-11.483-3.423-18.946-3.423H305.62v77.373z"/>
</svg>
