<svg xmlns="http://www.w3.org/2000/svg" shape-rendering="geometricPrecision" text-rendering="geometricPrecision" image-rendering="optimizeQuality" fill-rule="evenodd" clip-rule="evenodd" viewBox="0 0 512 414.889">
    <path fill="#FFA500" d="M112.312 274.865V131.311h38.98v56.084h51.581v-56.084h38.98v143.554h-38.98v-56.084h-51.581v56.084h-38.98zm203.556-53.259h30.266l10.951 13.72 18.49 21.016 24.113 29.181h-34.477l-17.105-19.903-11.51-16.546-20.728-27.468zm83.559-18.518c0 15.986-3.129 29.441-9.343 40.43-6.219 10.951-14.607 19.239-25.166 24.867-10.56 5.627-22.336 8.452-35.329 8.452-13.064 0-24.873-2.863-35.432-8.517-10.528-5.693-18.882-14.015-25.063-24.971-6.22-10.95-9.311-24.373-9.311-40.261 0-15.986 3.091-29.441 9.311-40.397 6.181-10.956 14.535-19.245 25.063-24.9 10.559-5.627 22.368-8.425 35.432-8.425 12.993 0 24.769 2.798 35.329 8.425 10.559 5.655 18.947 13.944 25.166 24.9 6.214 10.956 9.343 24.411 9.343 40.397zm-40.104 0c0-8.588-1.151-15.856-3.422-21.744-2.233-5.921-5.59-10.397-10-13.487-4.405-3.059-9.865-4.574-16.312-4.574-6.448 0-11.88 1.515-16.285 4.574-4.411 3.09-7.762 7.566-10.033 13.487-2.27 5.888-3.389 13.156-3.389 21.744 0 8.615 1.119 15.856 3.389 21.777 2.271 5.888 5.622 10.396 10.033 13.454 4.405 3.058 9.837 4.574 16.285 4.574 6.447 0 11.907-1.516 16.312-4.574 4.41-3.058 7.767-7.566 10-13.454 2.271-5.921 3.422-13.162 3.422-21.777z"/>
</svg>
